<svg width="87" height="78" fill="none" xmlns="http://www.w3.org/2000/svg"><path d="M1 7h84v67a3 3 0 01-3 3H4a3 3 0 01-3-3V7z" fill="#EBEBEB"/><path d="M1 7h84v12H1V7z" fill="#428DC5"/><path d="M34 35a15 15 0 01-12 7 14 14 0 1112-7z" fill="#8DC79D"/><path d="M33 34a13 13 0 01-11 6 13 13 0 1111-6z" fill="#AAE5C8"/><path d="M34 35l-2 3h-7a4 4 0 01-5-5v-3h3v3a1 1 0 002 2h9z" fill="#428DC5"/><path d="M20 56a4 4 0 100-8 4 4 0 000 8zM20 71a4 4 0 100-9 4 4 0 000 9z" fill="#DBDBDB"/><path d="M20 53a1 1 0 01-1 0l-3-3a1 1 0 112-2l2 2 7-5a1 1 0 111 2l-7 6h-1z" fill="#DC4D41"/><path d="M33 48h3v3h-3v-3zM39 48h16v3H39v-3zM33 53h9v3h-9v-3zM45 53h8v3h-8v-3zM46 38a4 4 0 100-9 4 4 0 000 9z" fill="#DBDBDB"/><path d="M46 35a1 1 0 01-1-1l-3-3a1 1 0 112-2l2 2 7-5a1 1 0 111 3l-7 5-1 1z" fill="#DC4D41"/><path d="M59 29h3v3h-3v-3zM65 29h13v3H65v-3zM59 35h12v3H59v-3zM74 35h4v3h-4v-3zM33 62h3v3h-3v-3zM39 62h16v3H39v-3zM33 68h10v3H33v-3zM46 68h19v3H46v-3zM38 4a3 3 0 00-6 0v6a3 3 0 106 0V4zM20 4a3 3 0 00-6 0v6a3 3 0 106 0V4zM55 4a3 3 0 00-6 0v6a3 3 0 106 0V4zM72 4a3 3 0 00-6 0v6a3 3 0 106 0V4z" fill="#DBDBDB"/><path d="M79 60a14 14 0 11-28-7 14 14 0 0128 7z" fill="#FBB540"/><path d="M79 60a14 14 0 01-14 11l-3-9h-3a3 3 0 01-3-2l-1-5 4-2 3-4h9l8 11z" fill="#DA922A"/><path d="M75 55v6a3 3 0 01-6 0V49h2l4 6zM62 55h3v3h-3v-3z" fill="#834B10"/><path d="M22 32a6 6 0 01-6-6v-3a1 1 0 011-1l3-2 1 3-2 1v2a3 3 0 006 0v-2l-3-1 2-3 3 2a1 1 0 010 1v3a6 6 0 01-5 6z" fill="#4799CF"/><path d="M85 6H74V4a4 4 0 00-9 0v2h-9V4a4 4 0 10-8 0v2h-9V4a4 4 0 10-9 0v2h-8V4a4 4 0 00-9 0v2H1a1 1 0 00-1 1v67a4 4 0 004 4h78a4 4 0 005-4V7a1 1 0 00-2-1zM68 4a1 1 0 013 0v6a1 1 0 01-3 0V4zM51 4a1 1 0 112 0v6a1 1 0 11-2 0V4zM33 4a1 1 0 013 0v6a1 1 0 01-3 0V4zm1 21a13 13 0 01-1 10h-8a1 1 0 01-2-2v-1a6 6 0 004-6v-3a1 1 0 000-1l-3-2-2 3 3 1v2a3 3 0 01-6 0v-2l2-1-1-3-3 2a1 1 0 00-1 1v3a6 6 0 004 6v1a4 4 0 005 5h5a13 13 0 114-13zM16 4a1 1 0 013 0v6a1 1 0 01-3 0V4zM3 9h10v1a4 4 0 001 3l-5 4H3V9zm81 65a1 1 0 01-2 1H4a1 1 0 01-1-1V20h5a16 16 0 1028 0h48v54zm0-57H34a16 16 0 00-13-5l1-2V9h8v1a4 4 0 009 0V9h9v1a4 4 0 108 0V9h9v1a4 4 0 009 0V9h10v8z" fill="#000"/><path d="M49 53h-4v3h4l1 6H39v3h13l2 3h-8v3h12a16 16 0 007 1 16 16 0 10-13-24H39v3h11l-1 2zm19 16h-2l-3-7a1 1 0 00-1-1h-3a1 1 0 01-2-1v-4l3-1v-1l3-3h5v10a4 4 0 109 0v-2 1a13 13 0 01-9 9zm3-8v-9l3 3v6a1 1 0 01-3 0zM54 49a13 13 0 0124 7l-6-8a1 1 0 00-1 0h-9a1 1 0 00-1 0l-3 4-4 2a1 1 0 00-1 1l1 5a4 4 0 005 4h2l2 5a13 13 0 01-9-20zM20 61a6 6 0 100 11 6 6 0 000-11zm0 8a3 3 0 110-5 3 3 0 010 5zM27 45l-3 2a6 6 0 101 3l3-3a1 1 0 10-1-2zm-7 4h1l-1 1-1-1h1zm0 6a3 3 0 01-3-4l2 2a1 1 0 002 0l2-1a3 3 0 01-3 3z" fill="#000"/><path d="M62 55h3v3h-3v-3zM33 48h3v3h-3v-3zM33 53h9v3h-9v-3zM46 39a6 6 0 005-8l3-2a1 1 0 10-1-3l-3 3a6 6 0 10-4 10zm0-9l1 1h-1l-1-1h1zm-3 2l2 2a1 1 0 002 0l2-1a3 3 0 11-6-1zM59 29h3v3h-3v-3zM65 29h13v3H65v-3zM59 35h12v3H59v-3zM74 35h4v3h-4v-3zM33 62h3v3h-3v-3zM33 68h10v3H33v-3z" fill="#000"/></svg>