<svg width="21" height="21" fill="none" xmlns="http://www.w3.org/2000/svg"><path d="M10.5 0C4.702 0 0 4.702 0 10.5S4.702 21 10.5 21 21 16.298 21 10.5 16.298 0 10.5 0zm0 19.219A8.72 8.72 0 011.781 10.5 8.72 8.72 0 0110.5 1.781a8.72 8.72 0 018.719 8.719 8.72 8.72 0 01-8.719 8.719z" fill="#FFBD54"/><path d="M14.595 13.467l-3.343-2.416V5.25a.188.188 0 00-.187-.188H9.938a.188.188 0 00-.188.188v6.455c0 .06.028.117.077.152l3.877 2.827a.19.19 0 00.262-.04l.67-.914a.187.187 0 00-.041-.263z" fill="#FFBD54"/></svg>