<svg width="21" height="22" fill="none" xmlns="http://www.w3.org/2000/svg"><path d="M20.5 6.6c-.8-.7-2-.7-2.7 0L16 8.5v-5c0-.4-.2-.9-.5-1.2L13.7.5C13.4.2 13 0 12.4 0H1.8C.8 0 0 .8 0 1.8v17.4c0 1 .8 1.8 1.8 1.8h12.4c1 0 1.8-.8 1.8-1.8v-5.5l4.5-4.5c.7-.7.7-1.9 0-2.6zm-8.2-5.4c.1 0 .3 0 .5.2l1.8 1.8c.2.1.2.4.2.5h-2.5V1.2zm2.5 18c0 .3-.3.6-.6.6H1.8a.6.6 0 01-.6-.6V1.8c0-.3.3-.6.6-.6h9.3v3.1c0 .3.3.6.6.6h3v4.8L13 11.5l-1 .9v.2l-1 2.6a.6.6 0 00.8.8l2.7-.9.2-.1v4.2zm-1.4-6.4l.9.9-.4.3-1.3.5.5-1.4.3-.3zm1.7 0l-.8-.9 3-3 .8 1-3 3zm4.5-4.5L19 9 18 8l.7-.6a.6.6 0 01.9.8z" fill="#fff"/><path d="M11.7 6.2H3a.6.6 0 000 1.2h8.6a.6.6 0 000-1.2zM9.2 8.6H3.1a.6.6 0 000 1.2h6.1a.6.6 0 000-1.2zM9.2 11H3.1a.6.6 0 100 1.3h6.1a.6.6 0 000-1.2zM9.2 13.5H3.1a.6.6 0 000 1.3h6.1a.6.6 0 000-1.3zM11.7 17.3H8a.6.6 0 000 1.2h3.7a.6.6 0 000-1.2z" fill="#fff"/></svg>