<svg width="1414" height="1873" fill="none" xmlns="http://www.w3.org/2000/svg"><path d="M376.504 64.953c1.766-.118 4.139-.568 5.014-1.443.875-.875 1.324-3.248 1.443-5.014.133-1.977.013-4.93-1.317-7.773a1.23 1.23 0 00-1.213-.705 13.538 13.538 0 00-7.574 3.091l-3.492-3.49a18.421 18.421 0 017.189-3.883 1.23 1.23 0 00-.658-2.371 20.886 20.886 0 00-8.275 4.51l-3.486-3.485a25.612 25.612 0 016.774-4.444 1.23 1.23 0 10-1.008-2.245 28.09 28.09 0 00-7.509 4.948l-3.483-3.483a33.252 33.252 0 014.806-3.712 1.23 1.23 0 10-1.319-2.078 35.775 35.775 0 00-5.229 4.05l-2.816-2.816a8.55 8.55 0 001.714-5.159c0-2.3-.896-4.464-2.523-6.09a1.23 1.23 0 00-2.076.628 12.049 12.049 0 01-9.476 9.476 1.232 1.232 0 00-.629 2.077 8.557 8.557 0 006.09 2.523 8.552 8.552 0 005.16-1.715l2.816 2.816a35.676 35.676 0 00-4.043 5.223 1.23 1.23 0 102.077 1.319 33.268 33.268 0 013.708-4.801l3.483 3.482a28.09 28.09 0 00-4.944 7.504 1.232 1.232 0 002.246 1.008 25.625 25.625 0 014.44-6.77l3.487 3.485a20.884 20.884 0 00-4.509 8.272 1.23 1.23 0 002.372.658 18.412 18.412 0 013.881-7.187l3.491 3.49a13.546 13.546 0 00-3.091 7.575 1.23 1.23 0 00.706 1.213c2.842 1.329 5.796 1.45 7.773 1.316zm-1.077-5.793a1.231 1.231 0 111.743-1.74 1.231 1.231 0 01-1.743 1.74zm301.532 265.875c-.111-1.64-.528-3.843-1.341-4.656-.812-.813-3.016-1.23-4.655-1.34-1.836-.124-4.579-.012-7.219 1.223a1.143 1.143 0 00-.655 1.126 12.572 12.572 0 002.871 7.034l-3.241 3.242a17.103 17.103 0 01-3.606-6.675 1.142 1.142 0 10-2.202.611 19.39 19.39 0 004.189 7.684l-3.237 3.237a23.77 23.77 0 01-4.126-6.29 1.144 1.144 0 00-2.085.936 26.066 26.066 0 004.594 6.972l-3.234 3.235a30.892 30.892 0 01-3.447-4.463 1.142 1.142 0 10-1.929 1.225 33.113 33.113 0 003.76 4.855l-2.615 2.616a7.937 7.937 0 00-4.79-1.592 7.944 7.944 0 00-5.656 2.343 1.142 1.142 0 00.584 1.928 11.188 11.188 0 018.799 8.8 1.142 1.142 0 001.929.584 7.95 7.95 0 002.342-5.656 7.938 7.938 0 00-1.592-4.791l2.615-2.616a33.106 33.106 0 004.85 3.755 1.142 1.142 0 101.224-1.929 30.986 30.986 0 01-4.458-3.443l3.234-3.235a26.04 26.04 0 006.969 4.591 1.143 1.143 0 00.936-2.085 23.77 23.77 0 01-6.288-4.124l3.237-3.237a19.391 19.391 0 007.682 4.187 1.141 1.141 0 10.611-2.203 17.095 17.095 0 01-6.674-3.604l3.241-3.242a12.568 12.568 0 007.033 2.87 1.143 1.143 0 001.127-.655c1.234-2.639 1.346-5.382 1.223-7.218zm-5.381 1a1.143 1.143 0 11-1.616-1.617 1.143 1.143 0 011.616 1.617z" fill="#F3F3F3"/><path d="M756.959 715.035c-.111-1.64-.528-3.843-1.341-4.656-.812-.813-3.016-1.23-4.655-1.34-1.836-.124-4.579-.012-7.219 1.223a1.143 1.143 0 00-.655 1.126 12.572 12.572 0 002.871 7.034l-3.241 3.242a17.103 17.103 0 01-3.606-6.675 1.142 1.142 0 10-2.202.611 19.39 19.39 0 004.189 7.684l-3.237 3.237a23.77 23.77 0 01-4.126-6.29 1.144 1.144 0 00-2.085.936 26.066 26.066 0 004.594 6.972l-3.234 3.235a30.892 30.892 0 01-3.447-4.463 1.142 1.142 0 10-1.929 1.225 33.113 33.113 0 003.76 4.855l-2.615 2.616a7.937 7.937 0 00-4.79-1.592 7.944 7.944 0 00-5.656 2.343 1.142 1.142 0 00.584 1.928 11.188 11.188 0 018.799 8.8 1.142 1.142 0 001.929.584 7.95 7.95 0 002.342-5.656 7.938 7.938 0 00-1.592-4.791l2.615-2.616a33.106 33.106 0 004.85 3.755 1.142 1.142 0 101.224-1.929 30.986 30.986 0 01-4.458-3.443l3.234-3.235a26.04 26.04 0 006.969 4.591 1.143 1.143 0 00.936-2.085 23.77 23.77 0 01-6.288-4.124l3.237-3.237a19.391 19.391 0 007.682 4.187 1.141 1.141 0 10.611-2.203 17.095 17.095 0 01-6.674-3.604l3.241-3.242a12.568 12.568 0 007.033 2.87 1.143 1.143 0 001.127-.655c1.234-2.639 1.346-5.382 1.223-7.218zm-5.381 1a1.143 1.143 0 11-1.616-1.617 1.143 1.143 0 011.616 1.617zM242.959 1292.03c-.111-1.64-.528-3.84-1.341-4.65-.812-.81-3.016-1.23-4.655-1.34-1.836-.12-4.579-.01-7.219 1.22-.432.2-.693.65-.655 1.13a12.542 12.542 0 002.871 7.03l-3.241 3.24a17.063 17.063 0 01-3.606-6.67 1.142 1.142 0 10-2.202.61 19.342 19.342 0 004.189 7.68l-3.237 3.24a23.658 23.658 0 01-4.126-6.29 1.145 1.145 0 00-1.511-.57c-.576.25-.833.93-.574 1.51a26.025 26.025 0 004.594 6.97l-3.234 3.23a30.866 30.866 0 01-3.447-4.46 1.143 1.143 0 10-1.929 1.23 33.124 33.124 0 003.76 4.85l-2.615 2.62a7.899 7.899 0 00-4.79-1.6c-2.137 0-4.146.84-5.656 2.35a1.142 1.142 0 00.584 1.93 11.18 11.18 0 018.799 8.8c.083.41.386.74.79.87.109.03.22.04.331.04.298 0 .59-.11.808-.33a7.95 7.95 0 002.342-5.66c0-1.75-.559-3.41-1.592-4.79l2.615-2.61a33.004 33.004 0 004.85 3.75c.19.12.401.18.611.18.378 0 .748-.19.966-.53.338-.53.18-1.24-.353-1.58-1.58-1-3.075-2.16-4.458-3.44l3.234-3.23a26.11 26.11 0 006.969 4.59c.152.06.311.1.467.1.436 0 .853-.25 1.043-.68.259-.57.001-1.25-.574-1.51a23.78 23.78 0 01-6.288-4.12l3.237-3.24a19.422 19.422 0 007.682 4.19 1.14 1.14 0 001.406-.8 1.146 1.146 0 00-.795-1.41 17.1 17.1 0 01-6.674-3.6l3.241-3.24a12.61 12.61 0 007.033 2.87h.092c.441 0 .846-.25 1.035-.66 1.234-2.64 1.346-5.38 1.223-7.22zm-5.381 1c-.446.45-1.169.45-1.616 0a1.136 1.136 0 010-1.61c.447-.45 1.17-.45 1.616 0 .447.45.447 1.17 0 1.61zm1143.382 546c-.11-1.64-.53-3.84-1.34-4.65-.81-.81-3.02-1.23-4.66-1.34-1.83-.12-4.58-.01-7.22 1.22-.43.2-.69.65-.65 1.13.21 2.59 1.22 5.05 2.87 7.03l-3.24 3.24a17.084 17.084 0 01-3.61-6.67c-.17-.61-.8-.97-1.4-.8-.61.17-.97.8-.8 1.41a19.38 19.38 0 004.19 7.68l-3.24 3.24c-1.7-1.87-3.09-3.98-4.12-6.29-.26-.57-.94-.83-1.51-.57-.58.25-.84.93-.58 1.51 1.15 2.56 2.69 4.9 4.6 6.97l-3.24 3.23a30.818 30.818 0 01-3.44-4.46c-.34-.53-1.05-.69-1.58-.35-.53.34-.69 1.04-.35 1.58 1.09 1.72 2.35 3.35 3.76 4.85l-2.62 2.62a7.888 7.888 0 00-4.79-1.6c-2.14 0-4.14.84-5.66 2.35-.29.3-.4.73-.28 1.14.12.4.46.7.87.79 4.45.89 7.91 4.34 8.8 8.8.08.41.38.74.79.87.11.03.22.04.33.04.3 0 .59-.11.81-.33a7.949 7.949 0 002.34-5.66c0-1.75-.56-3.41-1.59-4.79l2.61-2.61c1.5 1.4 3.13 2.66 4.85 3.75.19.12.4.18.61.18.38 0 .75-.19.97-.53.34-.53.18-1.24-.35-1.58-1.58-1-3.08-2.16-4.46-3.44l3.23-3.23c2.07 1.9 4.41 3.44 6.97 4.59.15.06.31.1.47.1a1.146 1.146 0 00.47-2.19 23.662 23.662 0 01-6.29-4.12l3.24-3.24c2.2 1.96 4.84 3.4 7.68 4.19.1.02.2.04.3.04.5 0 .96-.33 1.1-.84a1.14 1.14 0 00-.79-1.41c-2.46-.68-4.75-1.92-6.68-3.6l3.25-3.24c1.98 1.65 4.44 2.66 7.03 2.87h.09c.44 0 .85-.25 1.04-.66 1.23-2.64 1.34-5.38 1.22-7.22zm-5.38 1a1.14 1.14 0 11-1.62-1.61 1.14 1.14 0 111.62 1.61z" fill="#78C0DE" opacity=".09"/><path d="M63.952 633.428c-.136-2.019-.65-4.73-1.65-5.731-1-1-3.712-1.514-5.73-1.649-2.26-.152-5.636-.014-8.885 1.505a1.406 1.406 0 00-.806 1.386 15.473 15.473 0 003.533 8.658l-3.989 3.991a21.055 21.055 0 01-4.438-8.217 1.406 1.406 0 00-2.71.752 23.865 23.865 0 005.155 9.458l-3.983 3.985a29.281 29.281 0 01-5.08-7.742 1.407 1.407 0 10-2.566 1.151 32.085 32.085 0 005.655 8.582l-3.98 3.982a37.983 37.983 0 01-4.243-5.493 1.407 1.407 0 00-2.375 1.507 40.822 40.822 0 004.628 5.977l-3.218 3.219a9.773 9.773 0 00-5.896-1.959 9.782 9.782 0 00-6.962 2.883 1.407 1.407 0 00.719 2.374 13.77 13.77 0 0110.83 10.831 1.406 1.406 0 002.374.719 9.782 9.782 0 002.884-6.962 9.772 9.772 0 00-1.96-5.897l3.218-3.219a40.819 40.819 0 005.97 4.621 1.406 1.406 0 101.507-2.374 37.961 37.961 0 01-5.487-4.238l3.98-3.981a32.069 32.069 0 008.578 5.65 1.402 1.402 0 001.859-.707 1.406 1.406 0 00-.708-1.859 29.272 29.272 0 01-7.738-5.076l3.983-3.985a23.865 23.865 0 009.456 5.154 1.407 1.407 0 00.752-2.711 21.06 21.06 0 01-8.215-4.436l3.99-3.991a15.471 15.471 0 008.657 3.533 1.407 1.407 0 001.386-.806c1.52-3.249 1.657-6.625 1.505-8.885zm-6.622 1.231a1.407 1.407 0 11-1.989-1.99 1.407 1.407 0 011.989 1.99zm1130.62-87.767c-.15-2.145-.69-5.026-1.75-6.089-1.07-1.063-3.95-1.608-6.09-1.752-2.4-.162-5.99-.015-9.44 1.599-.57.264-.91.851-.86 1.473a16.384 16.384 0 003.76 9.199l-4.24 4.24a22.24 22.24 0 01-4.72-8.73 1.494 1.494 0 10-2.88.799 25.409 25.409 0 005.48 10.049l-4.23 4.234a31.06 31.06 0 01-5.4-8.226 1.498 1.498 0 00-1.98-.752c-.75.338-1.08 1.222-.75 1.975a34.22 34.22 0 006.01 9.119l-4.23 4.23a40.938 40.938 0 01-4.51-5.836 1.49 1.49 0 00-2.06-.461c-.69.442-.9 1.366-.46 2.063a43.01 43.01 0 004.92 6.349l-3.42 3.421a10.397 10.397 0 00-6.27-2.082c-2.79 0-5.42 1.088-7.39 3.064-.39.389-.54.962-.38 1.489.16.528.6.925 1.14 1.033a14.634 14.634 0 0111.51 11.508 1.491 1.491 0 002.52.763 10.38 10.38 0 003.07-7.396c0-2.29-.74-4.467-2.09-6.266l3.42-3.42a43.76 43.76 0 006.34 4.91 1.5 1.5 0 002.07-.46c.44-.697.23-1.621-.46-2.063a39.79 39.79 0 01-5.83-4.502l4.23-4.231a33.892 33.892 0 009.11 6.004c.2.089.41.131.61.131.57 0 1.12-.328 1.36-.882.34-.753.01-1.638-.75-1.976a31.184 31.184 0 01-8.22-5.393l4.23-4.234a25.374 25.374 0 0010.05 5.476 1.497 1.497 0 001.84-1.041 1.498 1.498 0 00-1.04-1.839 22.383 22.383 0 01-8.73-4.714l4.24-4.239a16.442 16.442 0 009.2 3.753 1.5 1.5 0 001.47-.856c1.61-3.453 1.76-7.04 1.6-9.441zm-7.04 1.308a1.49 1.49 0 01-2.11 0 1.5 1.5 0 010-2.113 1.49 1.49 0 012.11 0c.59.583.59 1.53 0 2.113zm-99.96 513.69c-.15-2.14-.69-5.02-1.75-6.09-1.07-1.06-3.95-1.61-6.09-1.75-2.4-.16-5.99-.01-9.44 1.6-.57.26-.91.85-.86 1.47.27 3.39 1.59 6.6 3.76 9.2l-4.24 4.24a22.254 22.254 0 01-4.72-8.73 1.497 1.497 0 00-1.84-1.04c-.79.22-1.26 1.05-1.04 1.84a25.42 25.42 0 005.48 10.05l-4.23 4.23a31.11 31.11 0 01-5.4-8.22 1.49 1.49 0 00-1.98-.75c-.75.33-1.08 1.22-.75 1.97 1.51 3.35 3.52 6.41 6.01 9.12l-4.23 4.23a40.973 40.973 0 01-4.51-5.84c-.44-.69-1.36-.9-2.06-.46-.69.45-.9 1.37-.46 2.07 1.43 2.25 3.08 4.38 4.92 6.35l-3.42 3.42c-1.8-1.36-3.98-2.09-6.27-2.09-2.79 0-5.42 1.09-7.39 3.07-.39.39-.54.96-.38 1.49.16.52.6.92 1.14 1.03 5.83 1.16 10.34 5.68 11.51 11.51.11.54.5.98 1.03 1.13a1.458 1.458 0 001.49-.37c1.98-1.97 3.07-4.6 3.07-7.4 0-2.29-.74-4.46-2.09-6.26l3.42-3.42c1.97 1.83 4.09 3.48 6.34 4.91.25.16.53.23.8.23.5 0 .98-.24 1.27-.69.44-.7.23-1.62-.46-2.06a40.333 40.333 0 01-5.83-4.51l4.23-4.23c2.7 2.49 5.76 4.51 9.11 6.01.2.09.41.13.61.13.57 0 1.12-.33 1.36-.88.34-.76.01-1.64-.75-1.98a31.075 31.075 0 01-8.22-5.39l4.23-4.24c2.89 2.57 6.33 4.45 10.05 5.48.13.04.27.05.4.05.65 0 1.26-.43 1.44-1.09.22-.8-.25-1.62-1.04-1.84-3.22-.89-6.21-2.51-8.73-4.71l4.24-4.24c2.6 2.16 5.81 3.48 9.2 3.75h.12c.57 0 1.1-.33 1.35-.86 1.61-3.45 1.76-7.04 1.6-9.44zm-7.04 1.31c-.58.58-1.53.58-2.11 0-.58-.58-.58-1.53 0-2.11.58-.59 1.53-.59 2.11 0 .59.58.59 1.53 0 2.11z" fill="#F3F3F3"/><path d="M1236.11 59.248c-1.59 1.066-3.57 2.771-3.92 4.065-.34 1.293.52 3.76 1.36 5.479.95 1.924 2.66 4.627 5.44 6.571.46.318 1.07.32 1.52.005a14.61 14.61 0 005.43-6.995l5.16 1.382a19.878 19.878 0 01-4.64 7.527 1.331 1.331 0 001.9 1.867 22.663 22.663 0 005.32-8.704l5.15 1.38a27.9 27.9 0 01-3.94 7.829 1.32 1.32 0 00.3 1.859c.59.43 1.42.296 1.85-.3a30.156 30.156 0 004.36-8.699l5.15 1.379a36.334 36.334 0 01-2.49 6.079 1.331 1.331 0 102.36 1.233 38.905 38.905 0 002.71-6.623l4.16 1.114a9.254 9.254 0 001.18 5.762 9.288 9.288 0 005.66 4.343c.48.127.98-.018 1.32-.376.33-.358.45-.872.29-1.337a13.04 13.04 0 013.75-14.007 1.334 1.334 0 00.28-1.666 1.369 1.369 0 00-.81-.62 9.277 9.277 0 00-7.08.931 9.239 9.239 0 00-3.9 4.398l-4.17-1.114c.54-2.332.87-4.708.97-7.082.01-.262-.06-.51-.18-.72a1.328 1.328 0 00-2.48.609 35.86 35.86 0 01-.88 6.503l-5.15-1.378c.71-3.197.91-6.456.58-9.707a1.215 1.215 0 00-.18-.53c-.25-.44-.75-.714-1.28-.66-.74.075-1.27.729-1.19 1.46a27.95 27.95 0 01-.5 8.747l-5.15-1.38c.69-3.368.6-6.864-.26-10.19a1.25 1.25 0 00-.13-.334c-.29-.505-.9-.776-1.49-.622-.71.184-1.14.91-.95 1.622.74 2.883.82 5.91.25 8.835l-5.16-1.382c.51-2.967.1-6.036-1.2-8.77-.02-.032-.04-.064-.05-.094a1.336 1.336 0 00-1.27-.66c-3.38.291-6.22 1.776-8 2.97zm4.15 4.846a1.331 1.331 0 01-.69 2.573c-.71-.19-1.14-.92-.94-1.631a1.33 1.33 0 011.63-.942z" fill="#FFBD54" opacity=".09"/><path opacity=".09" d="M632.852 80.11l-5.889-5.811a1.042 1.042 0 00-1.46 0 1.01 1.01 0 000 1.44l5.888 5.813a5.171 5.171 0 010 7.374c-.987.975-2.317 1.5-3.738 1.48a5.449 5.449 0 01-3.768-1.574l-7.728-7.628c-2.865-2.828-7.52-2.834-10.376-.014a7.193 7.193 0 000 10.256l2.771 2.735a21.017 21.017 0 00-6.82-1.129c-5.54 0-10.749 2.13-14.667 5.997-8.087 7.983-8.087 20.972 0 28.954 3.918 3.867 9.127 5.997 14.667 5.997 5.54 0 10.749-2.13 14.667-5.997 3.917-3.867 6.075-9.008 6.075-14.477 0-5.469-2.158-10.61-6.075-14.477-.092-.091-.186-.18-.279-.269l-8.879-8.776a5.171 5.171 0 010-7.373c2.051-2.025 5.396-2.019 7.455.014l7.728 7.628a7.518 7.518 0 005.199 2.171c1.983.027 3.842-.71 5.228-2.077a7.194 7.194 0 00.001-10.256zm-20.931 17.96a28.91 28.91 0 00-7.242 1.554 1.047 1.047 0 00-.153-.063 28.792 28.792 0 00-13.829-.912c3.182-2.31 7.011-3.558 11.035-3.558 3.674 0 7.184 1.04 10.189 2.979zm-21.089 12.063c-2.55-.078-5.094.18-7.58.773a18.29 18.29 0 01.766-3.213l.055-.016c3.626-1.252 6.821-1.73 10.13-1.501l-.079.076a28.78 28.78 0 00-3.292 3.881zm5.427-5.789l-.008-.002c-3.773-.534-7.288-.265-11.193.879a18.253 18.253 0 012.573-3.782c4.403-1.264 9.459-1.498 14.004-.532a28.6 28.6 0 00-5.376 3.437zm-13.189 8.712a26.814 26.814 0 016.458-.895 27.776 27.776 0 00-3.643 11.126 18.263 18.263 0 01-2.815-10.231zm4.729 12.746c.118-6.842 2.871-13.257 7.785-18.108 4.952-4.889 11.844-7.61 18.844-7.687a18.746 18.746 0 012.447 2.723c-13.898 1.067-25.018 11.898-26.286 25.595a18.865 18.865 0 01-2.79-2.523zm31.665-18.095c-6.249.806-11.768 3.328-16.016 7.332-4.427 4.174-7.129 9.661-7.847 15.91a18.612 18.612 0 01-3.034-1.35c.69-13.584 11.795-24.4 25.571-24.899a18.09 18.09 0 011.326 3.007zm-.527 13.016a28.34 28.34 0 00-6.595-9.014 27.433 27.433 0 014.349-1.424 26.051 26.051 0 013.527 5.889 18.116 18.116 0 01-1.281 4.549zm1.402-8.794a28.03 28.03 0 00-1.399-2.088c.352-.055.708-.104 1.066-.147.156.734.268 1.479.333 2.235zm-10.69 8.843a26.095 26.095 0 014.424 6.591 18.627 18.627 0 01-10.65 4.523c.579-4.619 2.853-8.687 6.226-11.114zm-8.311 11.185a19.011 19.011 0 01-3.722-.442c.608-5.91 3.191-11.049 7.187-14.875 1.206.8 2.337 1.692 3.384 2.665-3.773 2.833-6.28 7.458-6.849 12.652zm14.289-6.111a28.268 28.268 0 00-9.233-10.6 24.893 24.893 0 013.936-2.581 26.257 26.257 0 017.374 10.429 18.51 18.51 0 01-2.077 2.752z" fill="#78C0DE"/><path d="M1411.97 186.907l-5.56-5.618a.969.969 0 00-1.38 0 .994.994 0 000 1.393l5.56 5.618a5.074 5.074 0 010 7.128 4.821 4.821 0 01-3.53 1.431 5.091 5.091 0 01-3.56-1.521l-7.3-7.374a6.887 6.887 0 00-9.8-.014c-2.7 2.733-2.7 7.181 0 9.914l2.62 2.644a19.39 19.39 0 00-6.44-1.091c-5.23 0-10.15 2.059-13.85 5.797-7.64 7.717-7.64 20.273 0 27.989 3.7 3.738 8.62 5.797 13.85 5.797s10.15-2.059 13.85-5.797c3.7-3.738 5.74-8.708 5.74-13.994 0-5.287-2.04-10.257-5.74-13.995a5.312 5.312 0 00-.26-.26l-8.39-8.483c-1.94-1.965-1.94-5.163 0-7.128a4.948 4.948 0 017.04.014l7.3 7.374a7.038 7.038 0 004.91 2.098 6.747 6.747 0 004.94-2.008c2.71-2.733 2.71-7.18 0-9.914zm-19.77 17.361c-2.35.202-4.65.708-6.84 1.502a.688.688 0 00-.14-.061 26.594 26.594 0 00-13.06-.882 17.37 17.37 0 0110.42-3.439c3.47 0 6.79 1.006 9.62 2.88zm-19.91 11.661c-2.41-.076-4.81.174-7.16.746.15-1.05.39-2.09.72-3.105.02-.005.03-.01.05-.016 3.43-1.21 6.44-1.672 9.57-1.45-.03.024-.05.048-.08.073a27.572 27.572 0 00-3.1 3.752zm5.12-5.597l-.01-.001c-3.56-.517-6.88-.257-10.57.849a18.185 18.185 0 012.43-3.656c4.16-1.222 8.94-1.448 13.23-.514-1.8.905-3.5 2.016-5.08 3.322zm-12.45 8.422c1.99-.543 4.04-.832 6.09-.865a27.478 27.478 0 00-3.44 10.755 17.99 17.99 0 01-2.65-9.89zm4.46 12.321c.11-6.614 2.71-12.815 7.35-17.505 4.68-4.725 11.19-7.356 17.8-7.43.16.153.33.308.48.467.67.679 1.28 1.404 1.83 2.166-13.12 1.031-23.63 11.501-24.82 24.741a16.997 16.997 0 01-1.95-1.704c-.24-.24-.47-.485-.69-.735zm29.91-17.491c-5.9.778-11.12 3.216-15.13 7.087-4.18 4.035-6.73 9.339-7.41 15.38-.99-.348-1.95-.783-2.87-1.306.66-13.13 11.14-23.586 24.15-24.068.51.93.93 1.902 1.26 2.907zm-.5 12.581a27.44 27.44 0 00-6.23-8.713 25.59 25.59 0 014.11-1.377 25.218 25.218 0 013.33 5.693 17.865 17.865 0 01-1.21 4.397zm1.32-8.5c-.41-.693-.85-1.366-1.32-2.019.33-.053.67-.1 1.01-.142.15.709.25 1.43.31 2.161zm-10.09 8.548a25.712 25.712 0 014.18 6.371 17.41 17.41 0 01-10.06 4.373c.54-4.465 2.69-8.398 5.88-10.744zm-7.85 10.812c-1.2-.025-2.37-.169-3.52-.427.58-5.713 3.02-10.681 6.79-14.379 1.14.773 2.21 1.635 3.2 2.576-3.57 2.739-5.93 7.209-6.47 12.23zm13.49-5.907a27.17 27.17 0 00-8.72-10.247 23.756 23.756 0 013.72-2.495 25.332 25.332 0 016.96 10.081 17.51 17.51 0 01-1.96 2.661z" fill="#F3F3F3"/><path d="M924.971 550.907l-5.561-5.618a.969.969 0 00-1.38 0 .994.994 0 000 1.393l5.562 5.618c1.945 1.965 1.945 5.163 0 7.128a4.825 4.825 0 01-3.531 1.431 5.087 5.087 0 01-3.559-1.521l-7.299-7.374c-2.705-2.734-7.101-2.74-9.799-.014-2.705 2.733-2.705 7.181 0 9.914l2.617 2.644a19.426 19.426 0 00-6.441-1.091c-5.232 0-10.152 2.059-13.852 5.797-7.637 7.717-7.637 20.273 0 27.989 3.7 3.738 8.62 5.797 13.852 5.797 5.233 0 10.152-2.059 13.852-5.797 3.7-3.738 5.738-8.708 5.738-13.994 0-5.287-2.038-10.257-5.738-13.995-.087-.088-.175-.174-.263-.26l-8.386-8.483c-1.945-1.965-1.945-5.163 0-7.128a4.949 4.949 0 017.041.014l7.299 7.374a7.016 7.016 0 004.91 2.098 6.754 6.754 0 004.938-2.008c2.705-2.733 2.705-7.18 0-9.914zm-19.768 17.361a26.719 26.719 0 00-6.84 1.502.877.877 0 00-.144-.061 26.597 26.597 0 00-13.061-.882 17.387 17.387 0 0110.422-3.439c3.47 0 6.786 1.006 9.623 2.88zm-19.917 11.661a26.66 26.66 0 00-7.159.746c.148-1.05.39-2.09.723-3.105a.79.79 0 00.052-.016c3.425-1.21 6.442-1.672 9.567-1.45l-.074.073a27.567 27.567 0 00-3.109 3.752zm5.125-5.597l-.007-.001c-3.564-.517-6.883-.257-10.572.849a17.735 17.735 0 012.431-3.656c4.158-1.222 8.933-1.448 13.226-.514a26.969 26.969 0 00-5.078 3.322zm-12.456 8.422a24.761 24.761 0 016.099-.865 27.266 27.266 0 00-3.44 10.755 17.965 17.965 0 01-2.659-9.89zm4.466 12.321c.111-6.614 2.711-12.815 7.353-17.505 4.677-4.725 11.186-7.356 17.797-7.43a18 18 0 012.311 2.633c-13.126 1.031-23.629 11.501-24.826 24.741a17.868 17.868 0 01-2.635-2.439zm29.906-17.491c-5.901.778-11.114 3.216-15.126 7.087-4.182 4.035-6.733 9.339-7.411 15.38a17.36 17.36 0 01-2.865-1.306c.651-13.13 11.139-23.586 24.15-24.068.503.93.922 1.902 1.252 2.907zm-.498 12.581a27.357 27.357 0 00-6.228-8.713 25.521 25.521 0 014.107-1.377 25.334 25.334 0 013.331 5.693 17.778 17.778 0 01-1.21 4.397zm1.324-8.5a26.924 26.924 0 00-1.321-2.019c.333-.053.669-.1 1.007-.142.148.709.253 1.43.314 2.161zm-10.095 8.548a25.264 25.264 0 014.178 6.371 17.39 17.39 0 01-10.058 4.373c.546-4.465 2.694-8.398 5.88-10.744zm-7.85 10.812a17.627 17.627 0 01-3.515-.427c.574-5.713 3.013-10.681 6.787-14.379a25.092 25.092 0 013.197 2.576c-3.564 2.739-5.931 7.209-6.469 12.23zm13.495-5.907a27.151 27.151 0 00-8.72-10.247 23.507 23.507 0 013.718-2.495 25.392 25.392 0 016.964 10.081 17.867 17.867 0 01-1.962 2.661z" fill="#78C0DE" fill-opacity=".09"/><path d="M1372.97 886.907l-5.56-5.618a.969.969 0 00-1.38 0 .994.994 0 000 1.393l5.56 5.618a5.074 5.074 0 010 7.128 4.821 4.821 0 01-3.53 1.431 5.091 5.091 0 01-3.56-1.521l-7.3-7.374a6.887 6.887 0 00-9.8-.014c-2.7 2.733-2.7 7.181 0 9.914l2.62 2.644a19.39 19.39 0 00-6.44-1.091c-5.23 0-10.15 2.059-13.85 5.797-7.64 7.717-7.64 20.273 0 27.989 3.7 3.738 8.62 5.797 13.85 5.797s10.15-2.059 13.85-5.797c3.7-3.738 5.74-8.708 5.74-13.994 0-5.287-2.04-10.257-5.74-13.995a5.312 5.312 0 00-.26-.26l-8.39-8.483c-1.94-1.965-1.94-5.163 0-7.128a4.948 4.948 0 017.04.014l7.3 7.374a7.038 7.038 0 004.91 2.098 6.747 6.747 0 004.94-2.008c2.71-2.733 2.71-7.18 0-9.914zm-19.77 17.361c-2.35.202-4.65.708-6.84 1.502a.688.688 0 00-.14-.061 26.594 26.594 0 00-13.06-.882 17.37 17.37 0 0110.42-3.439c3.47 0 6.79 1.006 9.62 2.88zm-19.91 11.661c-2.41-.076-4.81.174-7.16.746.15-1.05.39-2.09.72-3.105.02-.005.03-.01.05-.016 3.43-1.21 6.44-1.672 9.57-1.45-.03.024-.05.048-.08.073a27.572 27.572 0 00-3.1 3.752zm5.12-5.597l-.01-.001c-3.56-.517-6.88-.257-10.57.849a18.185 18.185 0 012.43-3.656c4.16-1.222 8.94-1.448 13.23-.514-1.8.905-3.5 2.016-5.08 3.322zm-12.45 8.422c1.99-.543 4.04-.832 6.09-.865a27.478 27.478 0 00-3.44 10.755 17.99 17.99 0 01-2.65-9.89zm4.46 12.321c.11-6.614 2.71-12.815 7.35-17.505 4.68-4.725 11.19-7.356 17.8-7.43.16.153.33.308.48.467.67.679 1.28 1.404 1.83 2.166-13.12 1.031-23.63 11.501-24.82 24.741a16.997 16.997 0 01-1.95-1.704c-.24-.24-.47-.485-.69-.735zm29.91-17.491c-5.9.778-11.12 3.216-15.13 7.087-4.18 4.035-6.73 9.339-7.41 15.38-.99-.348-1.95-.783-2.87-1.306.66-13.13 11.14-23.586 24.15-24.068.51.93.93 1.902 1.26 2.907zm-.5 12.581a27.44 27.44 0 00-6.23-8.713 25.59 25.59 0 014.11-1.377 25.218 25.218 0 013.33 5.693 17.865 17.865 0 01-1.21 4.397zm1.32-8.5c-.41-.693-.85-1.366-1.32-2.019.33-.053.67-.1 1.01-.142.15.709.25 1.43.31 2.161zm-10.09 8.548a25.712 25.712 0 014.18 6.371 17.41 17.41 0 01-10.06 4.373c.54-4.465 2.69-8.398 5.88-10.744zm-7.85 10.812c-1.2-.025-2.37-.169-3.52-.427.58-5.713 3.02-10.681 6.79-14.379 1.14.773 2.21 1.635 3.2 2.576-3.57 2.739-5.93 7.209-6.47 12.23zm13.49-5.907a27.17 27.17 0 00-8.72-10.247 23.756 23.756 0 013.72-2.495 25.332 25.332 0 016.96 10.081 17.51 17.51 0 01-1.96 2.661zM94.97 921.907l-5.56-5.618a.968.968 0 00-1.38 0 .992.992 0 000 1.393l5.562 5.618c1.945 1.965 1.945 5.163 0 7.128a4.825 4.825 0 01-3.53 1.431 5.086 5.086 0 01-3.56-1.521l-7.298-7.374c-2.706-2.734-7.102-2.74-9.8-.014-2.705 2.733-2.705 7.181 0 9.914l2.617 2.644a19.423 19.423 0 00-6.44-1.091c-5.233 0-10.153 2.059-13.853 5.797-7.638 7.717-7.638 20.273 0 27.989 3.7 3.738 8.62 5.797 13.852 5.797 5.233 0 10.152-2.059 13.852-5.797 3.7-3.738 5.738-8.708 5.738-13.994 0-5.287-2.038-10.257-5.738-13.995-.087-.088-.175-.174-.263-.26l-8.386-8.483c-1.945-1.965-1.945-5.163 0-7.128a4.949 4.949 0 017.041.014l7.299 7.374a7.016 7.016 0 004.91 2.098 6.753 6.753 0 004.938-2.008c2.705-2.733 2.705-7.18 0-9.914zm-19.767 17.361a26.71 26.71 0 00-6.84 1.502.889.889 0 00-.144-.061 26.597 26.597 0 00-13.06-.882 17.388 17.388 0 0110.421-3.439c3.47 0 6.786 1.006 9.623 2.88zm-19.917 11.661a26.657 26.657 0 00-7.159.746c.148-1.05.39-2.09.723-3.105l.052-.016c3.425-1.21 6.442-1.672 9.567-1.45l-.074.073a27.565 27.565 0 00-3.109 3.752zm5.125-5.597l-.007-.001c-3.564-.517-6.884-.257-10.572.849a17.724 17.724 0 012.43-3.656c4.159-1.222 8.934-1.448 13.227-.514a26.99 26.99 0 00-5.078 3.322zm-12.456 8.422a24.75 24.75 0 016.1-.865 27.272 27.272 0 00-3.441 10.755 17.963 17.963 0 01-2.659-9.89zm4.466 12.321c.111-6.614 2.711-12.815 7.353-17.505 4.677-4.725 11.186-7.356 17.797-7.43a18.045 18.045 0 012.31 2.633c-13.125 1.031-23.627 11.501-24.825 24.741a17.925 17.925 0 01-2.635-2.439zm29.906-17.491c-5.901.778-11.114 3.216-15.126 7.087-4.182 4.035-6.733 9.339-7.411 15.38a17.366 17.366 0 01-2.865-1.306c.651-13.13 11.14-23.586 24.15-24.068.503.93.922 1.902 1.252 2.907zm-.498 12.581a27.363 27.363 0 00-6.228-8.713 25.547 25.547 0 014.108-1.377 25.333 25.333 0 013.33 5.693 17.787 17.787 0 01-1.21 4.397zm1.324-8.5a27.177 27.177 0 00-1.32-2.019c.332-.053.668-.1 1.006-.142.148.709.253 1.43.314 2.161zm-10.095 8.548a25.26 25.26 0 014.178 6.371 17.39 17.39 0 01-10.058 4.373c.546-4.465 2.694-8.398 5.88-10.744zm-7.85 10.812a17.631 17.631 0 01-3.515-.427c.574-5.713 3.013-10.681 6.787-14.379a25.055 25.055 0 013.197 2.576c-3.564 2.739-5.931 7.209-6.469 12.23zm13.495-5.907a27.148 27.148 0 00-8.72-10.247 23.485 23.485 0 013.718-2.495 25.39 25.39 0 016.964 10.081 17.882 17.882 0 01-1.962 2.661z" fill="#F3F3F3"/><path opacity=".07" d="M1086.97 1288.91l-5.56-5.62a.96.96 0 00-1.38 0 .99.99 0 000 1.39l5.56 5.62a5.076 5.076 0 010 7.13c-.93.94-2.19 1.45-3.53 1.43a5.099 5.099 0 01-3.56-1.52l-7.3-7.38c-2.7-2.73-7.1-2.74-9.8-.01-2.7 2.73-2.7 7.18 0 9.91l2.62 2.65c-2.04-.72-4.21-1.09-6.44-1.09-5.23 0-10.15 2.06-13.85 5.79-7.64 7.72-7.64 20.28 0 27.99 3.7 3.74 8.62 5.8 13.85 5.8s10.15-2.06 13.85-5.8c3.7-3.73 5.74-8.7 5.74-13.99 0-5.29-2.04-10.26-5.74-14l-.26-.26-8.39-8.48c-1.94-1.96-1.94-5.16 0-7.13a4.95 4.95 0 017.04.02l7.3 7.37a7.035 7.035 0 004.91 2.1c1.88.03 3.63-.69 4.94-2.01 2.71-2.73 2.71-7.18 0-9.91zm-19.77 17.36c-2.35.2-4.65.71-6.84 1.5-.04-.02-.09-.04-.14-.06a26.476 26.476 0 00-13.06-.88c3-2.24 6.62-3.44 10.42-3.44 3.47 0 6.79 1 9.62 2.88zm-19.91 11.66c-2.41-.08-4.81.17-7.16.75.15-1.06.39-2.09.72-3.11.02-.01.03-.01.05-.02 3.43-1.21 6.44-1.67 9.57-1.45l-.08.08a27.555 27.555 0 00-3.1 3.75zm5.12-5.6h-.01c-3.56-.52-6.88-.26-10.57.85.65-1.29 1.46-2.52 2.43-3.66 4.16-1.22 8.94-1.44 13.23-.51-1.8.9-3.5 2.02-5.08 3.32zm-12.45 8.42c1.99-.54 4.04-.83 6.09-.86a27.433 27.433 0 00-3.44 10.75c-1.85-3-2.74-6.46-2.65-9.89zm4.46 12.33c.11-6.62 2.71-12.82 7.35-17.51 4.68-4.72 11.19-7.36 17.8-7.43.16.15.33.31.48.47.67.68 1.28 1.4 1.83 2.16-13.12 1.03-23.63 11.5-24.82 24.74a16.49 16.49 0 01-1.95-1.7c-.24-.24-.47-.48-.69-.73zm29.91-17.5c-5.9.78-11.12 3.22-15.13 7.09-4.18 4.04-6.73 9.34-7.41 15.38-.99-.35-1.95-.78-2.87-1.3.66-13.14 11.14-23.59 24.15-24.07.51.93.93 1.9 1.26 2.9zm-.5 12.59c-1.49-3.3-3.61-6.27-6.23-8.72 1.3-.56 2.68-1.03 4.11-1.37 1.35 1.73 2.47 3.64 3.33 5.69-.22 1.52-.62 3-1.21 4.4zm1.32-8.51c-.41-.69-.85-1.36-1.32-2.01.33-.06.67-.1 1.01-.15.15.71.25 1.43.31 2.16zm-10.09 8.55c1.69 1.89 3.1 4.04 4.18 6.37-2.83 2.52-6.32 4.04-10.06 4.38.54-4.47 2.69-8.4 5.88-10.75zm-7.85 10.82c-1.2-.03-2.37-.17-3.52-.43.58-5.71 3.02-10.68 6.79-14.38 1.14.77 2.21 1.63 3.2 2.57-3.57 2.74-5.93 7.21-6.47 12.24zm13.49-5.91c-2.01-4.1-5-7.62-8.72-10.25a23.66 23.66 0 013.72-2.49c3.09 2.71 5.5 6.19 6.96 10.08-.56.94-1.22 1.83-1.96 2.66z" fill="#FFBD54"/><path d="M92.653 6.722L86.219.328a1.133 1.133 0 00-1.595 0 1.116 1.116 0 000 1.586l6.433 6.393a5.717 5.717 0 010 8.111c-1.08 1.073-2.532 1.65-4.084 1.629a5.934 5.934 0 01-4.118-1.732l-8.443-8.39c-3.13-3.111-8.216-3.118-11.337-.016a7.951 7.951 0 000 11.281l3.028 3.009a22.82 22.82 0 00-7.451-1.242c-6.053 0-11.745 2.343-16.025 6.597-8.836 8.781-8.836 23.069 0 31.85C46.907 63.657 52.598 66 58.652 66c6.053 0 11.744-2.343 16.025-6.596 4.28-4.254 6.637-9.91 6.637-15.925 0-6.016-2.357-11.671-6.637-15.925-.101-.1-.203-.198-.306-.296l-9.7-9.653a5.717 5.717 0 010-8.111c2.241-2.228 5.895-2.22 8.145.016l8.444 8.39a8.185 8.185 0 005.68 2.388c2.166.03 4.198-.78 5.713-2.285a7.95 7.95 0 000-11.281zM69.784 26.477c-2.727.23-5.382.806-7.913 1.71a1.13 1.13 0 00-.166-.07 31.257 31.257 0 00-15.11-1.003c3.476-2.541 7.66-3.914 12.057-3.914 4.014 0 7.85 1.145 11.132 3.277zm-23.041 13.27a31.31 31.31 0 00-8.282.85c.171-1.196.45-2.38.837-3.535.02-.005.04-.01.06-.017 3.961-1.377 7.452-1.903 11.067-1.651l-.086.083a31.526 31.526 0 00-3.596 4.27zm5.928-6.37h-.008c-4.122-.589-7.963-.292-12.23.966a20.134 20.134 0 012.812-4.16c4.81-1.39 10.335-1.648 15.3-.585a31.206 31.206 0 00-5.874 3.78zm-14.409 9.584a29.1 29.1 0 017.056-.984 30.682 30.682 0 00-3.98 12.238 20.186 20.186 0 01-3.076-11.254zm5.166 14.021c.129-7.526 3.137-14.583 8.507-19.92 5.41-5.376 12.94-8.37 20.589-8.455a20.576 20.576 0 012.673 2.996c-15.185 1.174-27.335 13.088-28.72 28.155a20.651 20.651 0 01-3.049-2.776zm34.597-19.904c-6.827.886-12.857 3.66-17.499 8.065-4.837 4.59-7.789 10.627-8.573 17.5a20.22 20.22 0 01-3.315-1.484c.754-14.942 12.887-26.84 27.939-27.389a19.961 19.961 0 011.448 3.308zm-.576 14.317a31.15 31.15 0 00-7.205-9.915 29.865 29.865 0 014.752-1.567 28.73 28.73 0 013.853 6.478 19.99 19.99 0 01-1.4 5.004zm1.532-9.673a30.935 30.935 0 00-1.528-2.297c.385-.06.773-.114 1.165-.161.17.806.292 1.627.363 2.458zm-11.68 9.727a28.714 28.714 0 014.835 7.25A20.287 20.287 0 0160.5 63.675c.632-5.081 3.116-9.556 6.802-12.226zm-9.08 12.304a20.663 20.663 0 01-4.067-.486c.665-6.501 3.487-12.154 7.852-16.363a29.005 29.005 0 013.699 2.931c-4.123 3.117-6.862 8.205-7.484 13.918zm15.612-6.723a31.031 31.031 0 00-10.088-11.66 27.188 27.188 0 014.301-2.838 28.88 28.88 0 018.056 11.471 20.353 20.353 0 01-2.27 3.027zm905.096 24.993a11.912 11.912 0 00-11.475.266 11.912 11.912 0 00-5.967 9.805l-.458 9.858a7.52 7.52 0 001.281 4.578 7.521 7.521 0 003.758 2.913 7.526 7.526 0 004.753.096 7.518 7.518 0 003.875-2.757l.064-.088a14.883 14.883 0 0110.285-5.887 7.527 7.527 0 004.324-1.976 7.52 7.52 0 002.294-4.165 7.52 7.52 0 00-.643-4.711 7.52 7.52 0 00-3.324-3.4l-8.767-4.532zM958.112 94.03c1.068-1.32 1.472-3.027 1.137-4.809-.318-1.695-1.277-3.263-2.701-4.414-1.424-1.15-3.158-1.758-4.882-1.714-1.812.046-3.397.799-4.462 2.118-2.144 2.65-1.442 6.787 1.566 9.221 2.397 1.936 5.544 2.215 7.808.908a5.507 5.507 0 001.534-1.31zm5.695-10.805c3.445-1.99 4.405-6.801 2.138-10.727-2.267-3.926-6.914-5.502-10.36-3.513-3.445 1.99-4.403 6.802-2.136 10.728 2.266 3.926 6.913 5.501 10.358 3.512zm11.801-4.481a5.87 5.87 0 001.759-.67c2.513-1.45 3.906-4.693 3.218-8.043-.396-1.929-1.42-3.619-2.881-4.76-1.53-1.193-3.351-1.65-5.128-1.284-1.777.365-3.271 1.503-4.206 3.203-.893 1.624-1.166 3.581-.769 5.51.836 4.067 4.428 6.779 8.007 6.044zm12.679-8.429h-.001c-3.39-.383-6.504 2.429-6.943 6.27-.436 3.842 1.965 7.282 5.352 7.67 1.235.14 2.434-.143 3.481-.748 1.824-1.052 3.183-3.079 3.464-5.523.435-3.841-1.966-7.281-5.353-7.669z" fill="#F3F3F3"/><path d="M571.684 246.149a11.54 11.54 0 00-11.117.258 11.54 11.54 0 00-5.781 9.498l-.444 9.552a7.289 7.289 0 001.241 4.435 7.282 7.282 0 003.64 2.821 7.288 7.288 0 004.606.094 7.282 7.282 0 003.753-2.671l.063-.086a14.42 14.42 0 019.964-5.703 7.284 7.284 0 004.189-1.914 7.292 7.292 0 002.222-4.036 7.278 7.278 0 00-.623-4.563 7.28 7.28 0 00-3.22-3.294l-8.493-4.391zm-20.168 11.632c1.034-1.278 1.426-2.932 1.102-4.658-.308-1.643-1.238-3.161-2.617-4.276-1.38-1.115-3.059-1.704-4.73-1.662-1.755.045-3.291.774-4.323 2.052-2.077 2.569-1.397 6.576 1.517 8.934 2.323 1.876 5.371 2.146 7.564.88a5.335 5.335 0 001.487-1.27zm5.517-10.467c3.338-1.928 4.267-6.59 2.072-10.393-2.197-3.804-6.699-5.33-10.037-3.403-3.338 1.927-4.267 6.589-2.07 10.393 2.195 3.803 6.697 5.33 10.035 3.403zm11.433-4.342h.001a5.711 5.711 0 001.704-.648c2.434-1.406 3.784-4.547 3.117-7.793-.384-1.869-1.375-3.506-2.791-4.611-1.482-1.157-3.246-1.599-4.968-1.245-1.722.354-3.169 1.456-4.074 3.104-.866 1.573-1.13 3.469-.746 5.337.81 3.941 4.29 6.568 7.757 5.856zm12.284-8.165l-.001-.001c-3.284-.371-6.301 2.353-6.726 6.075-.423 3.722 1.904 7.055 5.185 7.43 1.196.137 2.358-.138 3.372-.724 1.767-1.02 3.084-2.983 3.356-5.351.422-3.721-1.904-7.054-5.186-7.429z" opacity=".5" fill="#FFBD54" fill-opacity=".09"/><path d="M1368.61 336.412a14.202 14.202 0 00-13.68.317 14.213 14.213 0 00-7.12 11.69l-.55 11.755a8.968 8.968 0 001.53 5.457 8.97 8.97 0 004.48 3.473c1.84.651 3.8.69 5.67.115a8.968 8.968 0 004.62-3.287l.08-.105a17.73 17.73 0 0112.26-7.019 8.963 8.963 0 003.52-1.147 9.056 9.056 0 001.63-1.209 8.94 8.94 0 002.74-4.966c.36-1.92.09-3.862-.77-5.617a8.993 8.993 0 00-3.96-4.053l-10.45-5.404zm-24.82 14.316c1.27-1.573 1.75-3.609 1.35-5.734-.38-2.021-1.52-3.89-3.22-5.262-1.7-1.371-3.76-2.097-5.82-2.045-2.16.056-4.05.953-5.32 2.526-2.55 3.16-1.72 8.092 1.87 10.994 2.86 2.308 6.61 2.641 9.31 1.083a6.558 6.558 0 001.83-1.562zm6.79-12.883c4.1-2.372 5.25-8.109 2.55-12.789-2.71-4.682-8.25-6.561-12.36-4.189-4.1 2.371-5.25 8.109-2.54 12.791 2.7 4.68 8.24 6.559 12.35 4.187zm14.07-5.343a7.13 7.13 0 002.1-.798c2.99-1.73 4.65-5.596 3.83-9.59-.47-2.3-1.69-4.315-3.43-5.675-1.83-1.423-4-1.967-6.12-1.532-2.12.436-3.9 1.792-5.01 3.82-1.07 1.936-1.39 4.269-.92 6.568 1 4.851 5.28 8.083 9.55 7.207zm15.12-10.049l-.01-.001c-4.04-.457-7.75 2.896-8.27 7.477-.52 4.58 2.34 8.682 6.38 9.143 1.47.169 2.9-.17 4.15-.89 2.17-1.256 3.79-3.671 4.13-6.585.52-4.581-2.35-8.683-6.38-9.144zM659.326 570.198a11.4 11.4 0 00-10.983.254 11.4 11.4 0 00-5.712 9.384l-.438 9.436a7.191 7.191 0 001.226 4.381 7.196 7.196 0 003.596 2.788 7.206 7.206 0 004.55.093 7.2 7.2 0 003.709-2.639l.062-.085a14.243 14.243 0 019.844-5.634 7.2 7.2 0 004.138-1.892 7.194 7.194 0 002.195-3.986 7.194 7.194 0 00-.615-4.509 7.2 7.2 0 00-3.181-3.253l-8.391-4.338zm-19.925 11.491c1.022-1.262 1.408-2.897 1.088-4.602-.304-1.623-1.222-3.123-2.585-4.225-1.363-1.1-3.022-1.683-4.673-1.641-1.734.045-3.251.765-4.27 2.027-2.053 2.538-1.381 6.496 1.498 8.826 2.295 1.853 5.306 2.12 7.473.869a5.266 5.266 0 001.469-1.254zm5.451-10.341c3.297-1.904 4.216-6.51 2.046-10.267-2.169-3.758-6.618-5.267-9.915-3.363-3.298 1.904-4.215 6.51-2.046 10.268 2.17 3.758 6.617 5.265 9.915 3.362zm11.295-4.29a5.621 5.621 0 001.684-.64c2.405-1.389 3.738-4.492 3.08-7.699-.379-1.846-1.359-3.464-2.758-4.555-1.464-1.143-3.207-1.58-4.907-1.23-1.702.35-3.131 1.439-4.026 3.066-.855 1.555-1.116 3.428-.737 5.273.801 3.894 4.239 6.489 7.664 5.785zm12.136-8.067h-.002c-3.244-.367-6.225 2.325-6.644 6.002-.418 3.677 1.88 6.969 5.122 7.34 1.182.135 2.33-.137 3.332-.715 1.745-1.008 3.047-2.947 3.315-5.286.417-3.677-1.881-6.97-5.123-7.341zM783.217 1179.82a11.402 11.402 0 00-10.983.26 11.39 11.39 0 00-5.711 9.38l-.438 9.44a7.2 7.2 0 001.226 4.38 7.24 7.24 0 0011.854.24l.062-.09c2.35-3.15 5.932-5.2 9.844-5.63a7.144 7.144 0 002.826-.92c.468-.27.908-.6 1.313-.97a7.225 7.225 0 002.195-3.99c.287-1.54.074-3.1-.615-4.51a7.229 7.229 0 00-3.182-3.25l-8.391-4.34zm-19.925 11.49c1.022-1.26 1.409-2.89 1.089-4.6-.304-1.62-1.222-3.12-2.586-4.22-1.362-1.1-3.022-1.69-4.672-1.64-1.734.04-3.251.76-4.271 2.02-2.052 2.54-1.381 6.5 1.499 8.83 2.294 1.85 5.306 2.12 7.473.87a5.235 5.235 0 001.468-1.26zm5.451-10.34c3.298-1.9 4.216-6.51 2.047-10.26-2.17-3.76-6.618-5.27-9.916-3.37-3.297 1.91-4.215 6.51-2.045 10.27 2.169 3.76 6.617 5.27 9.914 3.36zm11.296-4.29a5.45 5.45 0 001.684-.64c2.405-1.39 3.738-4.49 3.079-7.7-.379-1.84-1.358-3.46-2.757-4.55-1.464-1.14-3.207-1.58-4.908-1.23-1.701.35-3.131 1.44-4.025 3.06-.855 1.56-1.117 3.43-.737 5.28.8 3.89 4.238 6.49 7.664 5.78zm12.136-8.06h-.002c-3.244-.37-6.225 2.32-6.645 6-.417 3.67 1.881 6.97 5.123 7.34 1.182.13 2.33-.14 3.331-.72 1.746-1.01 3.047-2.94 3.316-5.28.417-3.68-1.881-6.97-5.123-7.34z" opacity=".5" fill="#F3F3F3"/><path d="M173.217 1116.82a11.402 11.402 0 00-10.983.26 11.39 11.39 0 00-5.711 9.38l-.438 9.44a7.2 7.2 0 001.226 4.38 7.24 7.24 0 0011.854.24l.062-.09c2.35-3.15 5.932-5.2 9.844-5.63a7.144 7.144 0 002.826-.92c.468-.27.908-.6 1.313-.97a7.225 7.225 0 002.195-3.99c.287-1.54.074-3.1-.615-4.51a7.229 7.229 0 00-3.182-3.25l-8.391-4.34zm-19.925 11.49c1.022-1.26 1.409-2.89 1.089-4.6-.304-1.62-1.222-3.12-2.586-4.22-1.362-1.1-3.022-1.69-4.672-1.64-1.734.04-3.251.76-4.271 2.02-2.052 2.54-1.381 6.5 1.499 8.83 2.294 1.85 5.306 2.12 7.473.87a5.235 5.235 0 001.468-1.26zm5.451-10.34c3.298-1.9 4.216-6.51 2.047-10.26-2.17-3.76-6.618-5.27-9.916-3.37-3.297 1.91-4.215 6.51-2.045 10.27 2.169 3.76 6.617 5.27 9.914 3.36zm11.296-4.29a5.45 5.45 0 001.684-.64c2.405-1.39 3.738-4.49 3.079-7.7-.379-1.84-1.358-3.46-2.757-4.55-1.464-1.14-3.207-1.58-4.908-1.23-1.701.35-3.131 1.44-4.025 3.06-.855 1.56-1.117 3.43-.737 5.28.8 3.89 4.238 6.49 7.664 5.78zm12.136-8.06h-.002c-3.244-.37-6.225 2.32-6.645 6-.417 3.67 1.881 6.97 5.123 7.34 1.182.13 2.33-.14 3.331-.72 1.746-1.01 3.047-2.94 3.316-5.28.417-3.68-1.881-6.97-5.123-7.34z" opacity=".09" fill="#C3C3C3"/><path d="M1365.22 1655.82c-3.49-1.8-7.59-1.7-10.99.26a11.393 11.393 0 00-5.71 9.38l-.44 9.44a7.257 7.257 0 004.83 7.17c1.48.52 3.05.55 4.55.09a7.22 7.22 0 003.71-2.64l.06-.09a14.25 14.25 0 019.84-5.63c1.01-.11 1.97-.42 2.83-.92.46-.27.9-.6 1.31-.97a7.169 7.169 0 002.19-3.99c.29-1.54.08-3.1-.61-4.51a7.245 7.245 0 00-3.18-3.25l-8.39-4.34zm-19.93 11.49c1.02-1.26 1.41-2.89 1.09-4.6-.3-1.62-1.22-3.12-2.58-4.22-1.37-1.1-3.03-1.69-4.68-1.64-1.73.04-3.25.76-4.27 2.02-2.05 2.54-1.38 6.5 1.5 8.83 2.3 1.85 5.31 2.12 7.47.87.56-.32 1.06-.74 1.47-1.26zm5.45-10.34c3.3-1.9 4.22-6.51 2.05-10.26-2.17-3.76-6.62-5.27-9.92-3.37-3.29 1.91-4.21 6.51-2.04 10.27s6.62 5.27 9.91 3.36zm11.3-4.29c.6-.12 1.17-.34 1.68-.64 2.41-1.39 3.74-4.49 3.08-7.7-.38-1.84-1.36-3.46-2.75-4.55-1.47-1.14-3.21-1.58-4.91-1.23-1.7.35-3.13 1.44-4.03 3.06-.85 1.56-1.11 3.43-.74 5.28.81 3.89 4.24 6.49 7.67 5.78zm12.13-8.06c-3.24-.37-6.22 2.32-6.64 6-.42 3.67 1.88 6.97 5.12 7.34 1.18.13 2.33-.14 3.33-.72 1.75-1.01 3.05-2.94 3.32-5.28.41-3.68-1.88-6.97-5.13-7.34z" opacity=".09" fill="#DBDBDB"/><path d="M1069.22 752.822a11.415 11.415 0 00-10.99.255 11.403 11.403 0 00-5.71 9.384l-.44 9.436a7.25 7.25 0 001.23 4.381 7.218 7.218 0 003.6 2.788c1.48.522 3.05.554 4.55.092a7.2 7.2 0 003.71-2.638l.06-.085a14.237 14.237 0 019.84-5.634 7.22 7.22 0 002.83-.922c.46-.27.9-.594 1.31-.97a7.142 7.142 0 002.19-3.986 7.163 7.163 0 00-.61-4.509 7.21 7.21 0 00-3.18-3.254l-8.39-4.338zm-19.93 11.492c1.02-1.263 1.41-2.897 1.09-4.602-.3-1.623-1.22-3.123-2.58-4.225-1.37-1.101-3.03-1.684-4.68-1.641-1.73.044-3.25.764-4.27 2.027-2.05 2.537-1.38 6.496 1.5 8.826 2.3 1.853 5.31 2.12 7.47.869a5.08 5.08 0 001.47-1.254zm5.45-10.342c3.3-1.904 4.22-6.509 2.05-10.267-2.17-3.758-6.62-5.266-9.92-3.362-3.29 1.904-4.21 6.51-2.04 10.268 2.17 3.757 6.62 5.265 9.91 3.361zm11.3-4.289a5.6 5.6 0 001.68-.641c2.41-1.388 3.74-4.492 3.08-7.698-.38-1.846-1.36-3.464-2.75-4.556-1.47-1.142-3.21-1.579-4.91-1.23-1.7.35-3.13 1.439-4.03 3.067-.85 1.554-1.11 3.427-.74 5.273.81 3.893 4.24 6.489 7.67 5.785zm12.13-8.067c-3.24-.367-6.22 2.325-6.64 6.001-.42 3.677 1.88 6.97 5.12 7.34 1.18.136 2.33-.136 3.33-.714 1.75-1.008 3.05-2.948 3.32-5.287.41-3.677-1.88-6.969-5.13-7.34zM504.217 1348.82a11.402 11.402 0 00-10.983.26 11.39 11.39 0 00-5.711 9.38l-.438 9.44a7.2 7.2 0 001.226 4.38 7.24 7.24 0 0011.854.24l.062-.09c2.35-3.15 5.932-5.2 9.844-5.63a7.144 7.144 0 002.826-.92c.468-.27.908-.6 1.313-.97a7.225 7.225 0 002.195-3.99c.287-1.54.074-3.1-.615-4.51a7.229 7.229 0 00-3.182-3.25l-8.391-4.34zm-19.925 11.49c1.022-1.26 1.409-2.89 1.089-4.6-.304-1.62-1.222-3.12-2.586-4.22-1.362-1.1-3.022-1.69-4.672-1.64-1.734.04-3.251.76-4.271 2.02-2.052 2.54-1.381 6.5 1.499 8.83 2.294 1.85 5.306 2.12 7.473.87a5.235 5.235 0 001.468-1.26zm5.451-10.34c3.298-1.9 4.216-6.51 2.047-10.26-2.17-3.76-6.618-5.27-9.916-3.37-3.297 1.91-4.215 6.51-2.045 10.27 2.169 3.76 6.617 5.27 9.914 3.36zm11.296-4.29a5.45 5.45 0 001.684-.64c2.405-1.39 3.738-4.49 3.079-7.7-.379-1.84-1.358-3.46-2.757-4.55-1.464-1.14-3.207-1.58-4.908-1.23-1.701.35-3.131 1.44-4.025 3.06-.855 1.56-1.117 3.43-.737 5.28.8 3.89 4.238 6.49 7.664 5.78zm12.136-8.06h-.002c-3.244-.37-6.225 2.32-6.645 6-.417 3.67 1.881 6.97 5.123 7.34 1.182.13 2.33-.14 3.331-.72 1.746-1.01 3.047-2.94 3.316-5.28.417-3.68-1.881-6.97-5.123-7.34zM767.667 77.034h-.004a4.526 4.526 0 00-5.776-.534l-11.891-11.887a4.539 4.539 0 10-8.288-2.468 4.487 4.487 0 00-3.305 1.315 4.538 4.538 0 005.78 6.969l11.888 11.888a4.537 4.537 0 001.195 6.305 4.537 4.537 0 007.092-3.838 4.539 4.539 0 003.309-7.75zm285.003 409.482h-.01a4.516 4.516 0 00-5.77-.534L1035 474.094a4.542 4.542 0 00-7.51-5.111c-.53.778-.8 1.702-.78 2.644a4.503 4.503 0 00-3.31 1.314 4.542 4.542 0 00-.14 6.417 4.531 4.531 0 005.92.552l11.89 11.888a4.533 4.533 0 001.2 6.306 4.532 4.532 0 006.3-1.195 4.53 4.53 0 00.79-2.644 4.543 4.543 0 004.64-4.434 4.523 4.523 0 00-1.33-3.315zm334-415h-.01a4.518 4.518 0 00-5.77-.534L1369 59.094a4.542 4.542 0 00-7.51-5.11c-.53.777-.8 1.701-.78 2.643a4.501 4.501 0 00-3.31 1.314 4.541 4.541 0 00-.14 6.417 4.53 4.53 0 005.92.552l11.89 11.888a4.533 4.533 0 001.2 6.306 4.531 4.531 0 006.3-1.195 4.53 4.53 0 00.79-2.644 4.543 4.543 0 004.64-4.433 4.524 4.524 0 00-1.33-3.316zm-1054.003 181h-.004a4.525 4.525 0 00-5.776-.534l-11.891-11.888a4.54 4.54 0 10-8.288-2.467 4.489 4.489 0 00-3.305 1.314 4.539 4.539 0 005.78 6.969l11.888 11.888a4.537 4.537 0 108.287 2.467 4.539 4.539 0 003.309-7.749z" opacity=".5" fill="#F3F3F3"/><path d="M30.667 538.516h-.004a4.524 4.524 0 00-5.776-.534l-11.892-11.888a4.539 4.539 0 10-8.287-2.467 4.488 4.488 0 00-3.305 1.314 4.539 4.539 0 005.78 6.969l11.888 11.888a4.539 4.539 0 108.287 2.467 4.538 4.538 0 003.31-7.749z" fill="#78C0DE" opacity=".09"/><path d="M420.959 752.883h-.006a6.93 6.93 0 00-8.845-.817l-18.209-18.203a6.95 6.95 0 10-12.69-3.778 6.866 6.866 0 00-5.06 2.013 6.948 6.948 0 008.85 10.671l18.203 18.203a6.95 6.95 0 1012.691 3.778 6.948 6.948 0 005.066-11.867zm860.001 485.997h-.01a6.929 6.929 0 00-8.84-.81l-18.21-18.21a6.945 6.945 0 00-1.83-9.65c-3.17-2.16-7.49-1.34-9.66 1.83a6.92 6.92 0 00-1.2 4.04 6.9 6.9 0 00-5.06 2.02 6.94 6.94 0 00-.23 9.82 6.948 6.948 0 009.08.85l18.2 18.2a6.957 6.957 0 001.83 9.66 6.957 6.957 0 009.66-1.83 6.95 6.95 0 001.2-4.05 6.95 6.95 0 007.11-6.79c.04-1.9-.7-3.73-2.04-5.08z" fill="#F3F3F3" opacity=".5"/><path d="M426.376 1161.78h-.005a5.532 5.532 0 00-7.04-.65l-14.493-14.48a5.536 5.536 0 00-1.456-7.69 5.527 5.527 0 00-7.685 1.46 5.52 5.52 0 00-.959 3.22 5.466 5.466 0 00-4.028 1.6 5.529 5.529 0 007.045 8.49l14.487 14.49a5.535 5.535 0 001.457 7.69 5.527 5.527 0 007.685-1.46c.646-.95.981-2.07.959-3.22a5.53 5.53 0 005.656-5.4 5.546 5.546 0 00-1.623-4.05zm-382.042 452.1h-.005a5.657 5.657 0 00-7.22-.67l-14.865-14.86a5.67 5.67 0 00-1.493-7.88c-2.59-1.76-6.118-1.1-7.883 1.49a5.699 5.699 0 00-.983 3.31 5.598 5.598 0 00-4.13 1.64c-2.266 2.17-2.348 5.76-.184 8.02a5.662 5.662 0 007.408.69l14.86 14.86a5.67 5.67 0 001.493 7.88 5.666 5.666 0 007.882-1.49 5.667 5.667 0 00.984-3.3 5.675 5.675 0 004.136-9.69z" fill="#FFBD54" opacity=".07"/></svg>