<svg width="22" height="21" fill="none" xmlns="http://www.w3.org/2000/svg"><path d="M15 11v0h0l1 2h-1l-1-1-1 1 1 1 2 1-1 2h0v0h-1v0h0l-1-2h0l1 1 1-1-1-1-1-1 1-2h0v0h1v0zM16 9h0a5 5 0 013 7h0l-1 1h0v-1h0a5 5 0 00-2-6V9h0s0 0 0 0zM15 9h0 0zM10 12h0a5 5 0 002 6h0v1h0a5 5 0 01-2-8h0s0 0 0 0h0v1zM14 19v0h0s0 0 0 0h-1 1z" fill="#fff" stroke="#fff" stroke-width=".2"/><path d="M16 7h0a7 7 0 11-7 12h0-5a2 2 0 01-1-4h0a2 2 0 010-3h0a2 2 0 010-3h0a2 2 0 011-3h1a2 2 0 010-2h0-3a2 2 0 010-4h10a2 2 0 012 3h-1 4a2 2 0 010 4h-1 0s0 0 0 0zm-1 0H4a1 1 0 000 2h5a7 7 0 016-2zm-6 3h0-5a1 1 0 000 2h4l1-2zm-2 3h0-3a1 1 0 000 2h3a7 7 0 010-2zm0 3h0-3a1 1 0 000 2h5-1l-1-2zM18 5l-1-1H7a1 1 0 000 2h10l1-1zM1 2l1 1h10a1 1 0 000-2H2L1 2zm7 12a6 6 0 1013 0 6 6 0 00-13 0z" fill="#fff" stroke="#fff" stroke-width=".2"/></svg>