<svg width="77" height="77" fill="none" xmlns="http://www.w3.org/2000/svg"><path d="M67 73H10c-5 0-9-4-9-9V22c0-5 4-9 9-9h57c5 0 9 4 9 9v42c0 5-4 9-9 9z" fill="#FF573D"/><path d="M67 13h-5c5 0 9 4 9 9v42c0 5-4 9-9 9h5c5 0 9-4 9-9V22c0-5-4-9-9-9z" fill="#E64028"/><path d="M53 51a14 14 0 11-29 0 14 14 0 0129 0z" fill="#FFD659"/><path d="M39 36l-3 1a14 14 0 010 28 14 14 0 0017-14c0-8-7-15-14-15z" fill="#FFBD54"/><path d="M29 34a5 5 0 11-9 0 5 5 0 019 0zM57 34a5 5 0 11-9 0 5 5 0 019 0zM43 29a5 5 0 11-9 0 5 5 0 019 0z" fill="#FFD659"/><path d="M24 30h-2a5 5 0 010 8l2 1a5 5 0 100-9zM53 30h-2a5 5 0 010 8l2 1a5 5 0 100-9zM39 24l-3 1a5 5 0 010 8h3a5 5 0 100-9z" fill="#FFBD54"/><path d="M46 51a2 2 0 01-2 2h-3v3a2 2 0 01-5 0v-3h-3a2 2 0 010-5h3v-3a2 2 0 015 0v3h3c1 0 2 1 2 3z" fill="#89CEEA"/><path d="M57 10v8a2 2 0 11-5 0v-8c0-2-2-4-4-4H29c-2 0-4 2-4 4v8a2 2 0 11-5 0v-8c0-5 4-9 9-9h19c5 0 9 4 9 9z" fill="#E8E1D5"/><path d="M48 1h-5a9 9 0 019 9v8a2 2 0 105 0v-8c0-5-4-9-9-9z" fill="#D6CFC4"/><path d="M14 71h9v5h-9v-5zM54 71h9v5h-9v-5z" fill="#E8E1D5"/><path d="M19 71h4v5h-4v-5zM58 71h5v5h-5v-5z" fill="#D6CFC4"/><path d="M67 12h-3a1 1 0 000 2h3c4 0 8 4 8 8v42c0 5-4 8-8 8h-3v-1l-1-1h-9l-1 1v1H24v-1l-1-1h-9l-1 1v1h-3c-4 0-8-3-8-8V29a1 1 0 00-2 0v35c0 6 5 11 10 11h3v1l1 1h9l1-1v-1h29v1l1 1h9l1-1v-1h3c5 0 10-5 10-11V22c0-5-5-10-10-10zM22 75h-7v-3h7v3zm40 0h-7v-3h7v3z" fill="#000"/><path d="M1 25l1-1v-2c0-4 4-8 8-8h9v4a3 3 0 007 0v-4h25v4a3 3 0 007 0v-4h1a1 1 0 000-2h-1v-2c0-5-5-10-10-10H29c-5 0-10 5-10 10v2h-9C5 12 0 17 0 22v2l1 1zm25-13v-2c0-2 1-3 3-3h19c2 0 3 1 3 3v2H26zm-5-2c0-4 4-8 8-8h19c4 0 8 4 8 8v8a1 1 0 01-3 0v-8c0-3-2-5-5-5H29c-3 0-5 2-5 5v8a1 1 0 01-3 0v-8zM29 61v2a15 15 0 0025-12 15 15 0 10-29 8 1 1 0 102-1 13 13 0 0112-21 13 13 0 11-9 24h-1zM30 34a6 6 0 10-11 0 6 6 0 0011 0zm-6 4a3 3 0 110-7 3 3 0 010 7zM58 34a6 6 0 10-11 0 6 6 0 0011 0zm-5 4a3 3 0 110-7 3 3 0 010 7z" fill="#000"/><path d="M44 29a6 6 0 10-11 0 6 6 0 0011 0zm-9 0a3 3 0 117 0 3 3 0 01-7 0zM41 43l-2-1c-2 0-4 1-4 3v2h-2a3 3 0 000 7h2v2a3 3 0 007 0v-2h2l2-1 1-2c0-2-1-4-3-4h-2v-2l-1-2zm3 6a1 1 0 010 3h-3l-1 1v3a1 1 0 01-3 0v-3l-1-1h-3a1 1 0 010-3h3l1-1v-3a1 1 0 013 0v3l1 1h3zM8 19a1 1 0 11-2 0 1 1 0 012 0zM70 19a1 1 0 11-2 0 1 1 0 012 0zM8 68a1 1 0 11-2 0 1 1 0 012 0zM70 68a1 1 0 11-2 0 1 1 0 012 0z" fill="#000"/></svg>