<svg width="143" height="138" fill="none" xmlns="http://www.w3.org/2000/svg"><g opacity=".1" fill="#78C0DE"><path d="M85 81a26 26 0 00-37-24L28 67a16 16 0 00-9 17 17 17 0 0014 14c9 2 17 7 22 14a17 17 0 0027 1c2-3 3-7 3-10V81zM40 53c4 1 8 0 11-3 3-2 5-6 6-10 0-4 0-7-2-11-2-3-5-6-9-6-7-2-14 4-16 12-1 7 1 13 6 16l4 2z"/><path d="M67 53c8 5 18 1 23-7s4-19-4-24c-7-4-17-1-23 7-5 9-3 19 4 24zM88 71l3 3c5 3 13 3 19-2 3-3 6-7 6-11 1-4 0-8-3-11-2-3-6-5-10-5s-8 2-12 4c-7 6-8 16-3 22zM117 87c-2-7-11-10-19-7s-12 11-9 18c1 3 2 5 5 6 4 3 9 3 14 1 8-3 12-11 9-18z"/></g></svg>