<svg width="78" height="78" fill="none" xmlns="http://www.w3.org/2000/svg"><path d="M1 1h76v17H1V1z" fill="#F9ADB1"/><path d="M71 12a6 6 0 00-6 6 6 6 0 10-13 0l-12 1-13-5-1 4a6 6 0 10-13 0 6 6 0 10-12 0l2 14 3 14 6-18 1-7v1a6 6 0 002 5l4 4h1l4-4a6 6 0 002-5l2 5 4 4h1l4-4 2-5 2 5 4 4h1l4-4 2-5a6 6 0 002 5l4 4h1l4-4a6 6 0 002-5v-1l1 7 5 18 4-14 2-14a6 6 0 00-6-6z" fill="#E4E4E2"/><path d="M50 9l-4-1h-4a1 1 0 01-1-2l4-1h1l5 2a1 1 0 01-1 2z" fill="#EEA5A9"/><path d="M57 34h3v2h-3v-2zM57 39h3v5h-3v-5z" fill="#C0F5F9"/><path d="M39 18v2h-3a5 5 0 01-5-1l-3-3-1-2a7 7 0 0112 4z" fill="#FBB540"/><path d="M34 18a1 1 0 100-2 1 1 0 000 2z" fill="#DA922A"/><path d="M52 18h-2a3 3 0 00-3 2 4 4 0 01-4 1l-4-1v-2a7 7 0 016-6h1a7 7 0 012 0 7 7 0 014 6z" fill="#FBB540"/><path d="M44 18a1 1 0 100-2 1 1 0 000 2z" fill="#DA922A"/><path d="M53 49a1 1 0 01-1-1V23a1 1 0 011-1l3-2a1 1 0 00-1 0h-7a1 1 0 010-3h7a3 3 0 013 5h-1l-2 2v24a1 1 0 01-2 1z" fill="#6CBAE5"/><path d="M53 48a4 4 0 014 4v25h-8V52a4 4 0 014-4z" fill="#428DC5"/><path d="M53 60h4v2h-4v-2zM53 65h4v3h-4v-3zM53 70h4v3h-4v-3z" fill="#3775A4"/><path d="M49 56h8v-4a4 4 0 00-8 0v4z" fill="#4799CF"/><path d="M57 34h3v2h-3v-2zM57 39h3v5h-3v-5z" fill="#000"/><path d="M77 0H1a1 1 0 00-1 1v17l2 14 3 14a1 1 0 001 1h1a1 1 0 001-1l5-18 1-1 4 5a2 2 0 003 0l4-5 1-1 1 1 4 5a2 2 0 003 0l4-5 1-1 1 1 4 5a2 2 0 003 0l4-5 1-1v21a5 5 0 00-4 5v25a1 1 0 001 1h8a1 1 0 002-1V52a5 5 0 00-4-5V29l2 3a2 2 0 003 0l4-5 1 1 5 18a1 1 0 002 1 1 1 0 001-1l3-14a59 59 0 002-14V1a1 1 0 00-1-1zm-2 3v9a7 7 0 00-10 2 8 8 0 00-13 0 8 8 0 00-7-4 8 8 0 00-6 4 8 8 0 00-7-4 8 8 0 00-6 4 8 8 0 00-13 0 7 7 0 00-10-2V3h72zM56 20l-3 2v-2h2a1 1 0 011 0zm-8-3a1 1 0 00-1 1l-1 1a3 3 0 01-3 1l-3-1v-1a5 5 0 0111-1h-3zm-10 2h-2a4 4 0 01-4-1l-3-3a5 5 0 019 3v1zm-27 8L7 41 4 31 3 18a5 5 0 019 0v3l-1 6zm9 2l-4-3a5 5 0 01-2-4v-4a5 5 0 0111 0v4a5 5 0 01-2 4l-3 3zm16-3l-3 3-4-3-2-4v-4-1l3 3a7 7 0 007 2l1-1v1l-2 4zm15-4l-2 4-3 3-4-3-2-4v-1l2 1a5 5 0 004 0l2-2a2 2 0 012 0h1v2zm0 53V57h5v3h-3v2h3v3h-3v3h3v2h-3v3h3v2h-5zm5-23v3h-5v-3a3 3 0 115 0zm8-30a5 5 0 01-2 4l-3 3-4-3v-2l2-2h1a3 3 0 00-3-5h-2a5 5 0 0111 1v4zm7 19l-4-14-1-6v-3a5 5 0 019 0l-1 13-3 10z" fill="#000"/><path d="M42 8h4l4 1a1 1 0 001-2l-5-2h-1l-4 1a1 1 0 001 2zM34 18a1 1 0 100-2 1 1 0 000 2zM44 18a1 1 0 100-2 1 1 0 000 2z" fill="#000"/></svg>