<svg width="68" height="77" fill="none" xmlns="http://www.w3.org/2000/svg"><path d="M52 42v-6H34v6a5 5 0 00-5 5v23a5 5 0 005 5h18a5 5 0 005-5V47a5 5 0 00-5-5z" fill="#6B9777"/><path d="M57 25v8a3 3 0 01-3 3H31a3 3 0 01-2-3v-8a3 3 0 012-2h23a3 3 0 013 2z" fill="#CBCBCB"/><path d="M29 49h28v18H29V49z" fill="#E4E4E2"/><path d="M45 60h-4a2 2 0 000 3h4a2 2 0 000-3zM43 57a1 1 0 01-2-1v-1a1 1 0 013 0v1a1 1 0 01-1 1zM39 58a1 1 0 01-1-1v-1a1 1 0 012 0v1a1 1 0 01-1 1zM46 58a1 1 0 01-1-1v-1a1 1 0 113 0v1a1 1 0 01-2 1z" fill="#6B9777"/><path d="M1 76a1 1 0 01-1-2l8-16a1 1 0 112 1L2 75a1 1 0 01-1 1z" fill="#C3C3C3"/><path d="M57 27v2h-9a1 1 0 110-2h9zM43 29h-3a1 1 0 010-2h3a1 1 0 010 2z" fill="#E4E4E2"/><path d="M64 55v-6H54v6a3 3 0 00-2 2v15a3 3 0 002 3h10a3 3 0 003-3V57a3 3 0 00-3-2z" fill="#A45E14"/><path d="M66 42H52v7h14l1-1v-5l-1-1z" fill="#A8A8A8"/><path d="M52 60h15v10H52V60z" fill="#F3AF3E"/><path d="M67 63v3h-4a1 1 0 010-3h4zM58 66h-1a1 1 0 010-3h1a1 1 0 110 3z" fill="#EA9D2D"/><path d="M34 36h18v2H34v-2z" fill="#5E8569"/><path d="M54 49h10v3H54v-3z" fill="#834B10"/><path d="M35 23l-6 12V25a3 3 0 012-2h4z" fill="#B9B9B9"/><path d="M26 13l9 5-17 35a2 2 0 01-3 0l-5-2a2 2 0 01-1-3l17-35z" fill="#EBEBEB"/><path d="M22 22l9 5-13 26a2 2 0 01-3 0l-5-2a2 2 0 01-1-3l13-26z" fill="#F388A2"/><path d="M21 35l1-2 5 2-1 2-5-2zM19 40l1-3 4 3-1 2-4-2zM16 44l2-2 4 2-1 2-5-2zM14 49l1-3 5 3-1 2-5-2z" fill="#CF748A"/><path d="M9 59a3 3 0 01-1-4l2-4 5 2-2 5a3 3 0 01-4 1z" fill="#4799CF"/><path d="M25 28a1 1 0 01-1-2l9-19a1 1 0 013 1L26 28a1 1 0 01-1 0z" fill="#F3AF3E"/><path d="M29 15l-5 11a1 1 0 102 2l6-12-3-1z" fill="#EA9D2D"/><path d="M22 22l9 5-3 5-9-5 3-5z" fill="#DA922A"/><path d="M31 6l7 3a3 3 0 002-4l-7-3a3 3 0 10-2 4z" fill="#4799CF"/><path d="M66 51a2 2 0 002-3v-5a2 2 0 00-2-2H53v-4h1a4 4 0 004-4v-8a4 4 0 00-4-3H35l1-3a1 1 0 000-2l-4-2 3-6 2 2a4 4 0 104-7l-7-4a4 4 0 10-3 7l2 1-3 6-3-2a1 1 0 00-2 1L8 48a3 3 0 001 3l-2 4a4 4 0 001 4L0 74a1 1 0 102 1l8-15a4 4 0 004-2l1-3a3 3 0 003-1l1-1 9-18a4 4 0 003 2h2v4a6 6 0 00-6 6v23a6 6 0 007 6h30a4 4 0 004-4V57a4 4 0 00-3-4v-2h1zM32 5a1 1 0 011-2l7 3a1 1 0 11-2 2l-6-3zm-1 12l2 2-1 3-2 3-2-1 3-7zm-4-2l2 1-3 7-3-1 4-7zM11 57a1 1 0 01-2-1l2-3 2 1-2 3zm14-23l-3-1-1 2 3 2-1 2-3-2-1 3 3 1-1 3-3-2-2 2 4 2-1 2-4-2-1 3 4 1-1 2a1 1 0 01-1 0l-6-2a1 1 0 010-1l10-20 7 3-2 2zm4-6l-1 2-7-3 1-3 7 4zm2 6a1 1 0 01-1-1v-2l1-2 2-5h21a1 1 0 011 1v2h-7a1 1 0 000 2h7v4a1 1 0 01-1 1H31zm-1 13a4 4 0 014-4 1 1 0 001-1v-5h15v11H30v-1zm4 27a4 4 0 01-4-4v-2h20v6H34zm16-17v9H30V51h23v2a4 4 0 00-3 4zm15 15a1 1 0 01-1 2H54a1 1 0 01-1-2v-1h12v1zm0-9h-2a1 1 0 000 3h2v2H53v-7h12v2zm0-5H53v-1a1 1 0 011-1h10a1 1 0 011 1v1zm-10-5v-2h8v2h-8zm-2-5v-5h12v5H53z" fill="#000"/><path d="M45 60h-4a2 2 0 100 3h4a2 2 0 000-3zM43 57a1 1 0 001-1v-1a1 1 0 00-3 0v1a1 1 0 002 1zM40 57v-1a1 1 0 10-2 0v1a1 1 0 002 0zM46 55a1 1 0 00-1 1v1a1 1 0 103 0v-1a1 1 0 00-2-1zM57 66h1a1 1 0 000-3h-1a1 1 0 100 3zM40 29h3a1 1 0 100-2h-3a1 1 0 000 2z" fill="#000"/></svg>